<svg width="60" height="60" viewBox="0 0 60 60" fill="none" xmlns="http://www.w3.org/2000/svg">
<path fill-rule="evenodd" clip-rule="evenodd" d="M30 55C43.807 55 55 43.807 55 30C55 16.1929 43.807 5 30 5C16.1929 5 5 16.1929 5 30C5 33.9992 5.93905 37.779 7.60865 41.1312C8.05235 42.022 8.20002 43.0402 7.9428 44.0015L6.45378 49.5667C5.80738 51.9825 8.01752 54.1925 10.4334 53.5462L15.9985 52.0572C16.9598 51.8 17.978 51.9477 18.8688 52.3912C22.2209 54.061 26.0007 55 30 55ZM20 33.125C18.9645 33.125 18.125 33.9645 18.125 35C18.125 36.0355 18.9645 36.875 20 36.875H33.75C34.7855 36.875 35.625 36.0355 35.625 35C35.625 33.9645 34.7855 33.125 33.75 33.125H20ZM18.125 26.25C18.125 25.2145 18.9645 24.375 20 24.375H40C41.0355 24.375 41.875 25.2145 41.875 26.25C41.875 27.2855 41.0355 28.125 40 28.125H20C18.9645 28.125 18.125 27.2855 18.125 26.25Z" fill="#253761"/>
</svg>
