<svg width="60" height="60" viewBox="0 0 60 60" fill="none" xmlns="http://www.w3.org/2000/svg">
<path fill-rule="evenodd" clip-rule="evenodd" d="M8.66117 8.66117C5 12.3223 5 18.2149 5 30C5 41.785 5 47.6777 8.66117 51.3387C12.3223 55 18.2149 55 30 55C41.785 55 47.6777 55 51.3387 51.3387C55 47.6777 55 41.785 55 30C55 18.2149 55 12.3223 51.3387 8.66117C47.6777 5 41.785 5 30 5C18.2149 5 12.3223 5 8.66117 8.66117ZM42.5 30.625C43.5355 30.625 44.375 31.4645 44.375 32.5V45C44.375 46.0355 43.5355 46.875 42.5 46.875C41.4645 46.875 40.625 46.0355 40.625 45V32.5C40.625 31.4645 41.4645 30.625 42.5 30.625ZM31.875 15C31.875 13.9645 31.0355 13.125 30 13.125C28.9645 13.125 28.125 13.9645 28.125 15V45C28.125 46.0355 28.9645 46.875 30 46.875C31.0355 46.875 31.875 46.0355 31.875 45V15ZM17.5 20.625C18.5355 20.625 19.375 21.4645 19.375 22.5V45C19.375 46.0355 18.5355 46.875 17.5 46.875C16.4645 46.875 15.625 46.0355 15.625 45V22.5C15.625 21.4645 16.4645 20.625 17.5 20.625Z" fill="#FFC400"/>
</svg>
