<svg width="60" height="60" viewBox="0 0 60 60" fill="none" xmlns="http://www.w3.org/2000/svg">
<path d="M55 30C55 43.807 43.807 55 30 55C16.1929 55 5 43.807 5 30C5 16.1929 16.1929 5 30 5C43.807 5 55 16.1929 55 30Z" fill="#377E80"/>
<path fill-rule="evenodd" clip-rule="evenodd" d="M30 18.125C31.0355 18.125 31.875 18.9645 31.875 20V29.2233L37.5757 34.9243C38.308 35.6565 38.308 36.8435 37.5757 37.5758C36.8435 38.308 35.6565 38.308 34.9242 37.5758L28.6742 31.3258C28.3225 30.9743 28.125 30.4973 28.125 30V20C28.125 18.9645 28.9645 18.125 30 18.125Z" fill="white"/>
</svg>
