<svg width="60" height="60" viewBox="0 0 60 60" fill="none" xmlns="http://www.w3.org/2000/svg">
<path d="M54.75 28.8825L47.25 13.8825C47.1453 13.6736 47.0068 13.4836 46.84 13.32C46.6082 13.0616 46.3245 12.855 46.0075 12.7137C45.6904 12.5724 45.3471 12.4996 45 12.5H32.5V7.5C32.5 6.83696 32.2366 6.20107 31.7678 5.73223C31.2989 5.26339 30.663 5 30 5C29.337 5 28.7011 5.26339 28.2322 5.73223C27.7634 6.20107 27.5 6.83696 27.5 7.5V12.5H15C14.655 12.5013 14.3141 12.575 13.9993 12.7162C13.6845 12.8575 13.4029 13.0632 13.1725 13.32C13.0057 13.4836 12.8672 13.6736 12.7625 13.8825L5.2625 28.8825C5.09224 29.2301 5.00658 29.613 5.0125 30H5C5 32.6522 6.05357 35.1957 7.92893 37.0711C9.8043 38.9464 12.3478 40 15 40C17.6522 40 20.1957 38.9464 22.0711 37.0711C23.9464 35.1957 25 32.6522 25 30H24.975C24.9809 29.613 24.8953 29.2301 24.725 28.8825L19.045 17.5H27.5V50H15C14.337 50 13.7011 50.2634 13.2322 50.7322C12.7634 51.2011 12.5 51.837 12.5 52.5C12.5 53.163 12.7634 53.7989 13.2322 54.2678C13.7011 54.7366 14.337 55 15 55H45C45.663 55 46.2989 54.7366 46.7678 54.2678C47.2366 53.7989 47.5 53.163 47.5 52.5C47.5 51.837 47.2366 51.2011 46.7678 50.7322C46.2989 50.2634 45.663 50 45 50H32.5V17.5H40.955L35.2625 28.8825C35.0922 29.2301 35.0066 29.613 35.0125 30H35C35 32.6522 36.0536 35.1957 37.9289 37.0711C39.8043 38.9464 42.3478 40 45 40C47.6522 40 50.1957 38.9464 52.0711 37.0711C53.9464 35.1957 55 32.6522 55 30H54.975C54.9887 29.615 54.9116 29.2322 54.75 28.8825ZM19.705 30H10.295L15 20.59L19.705 30ZM40.295 30L45 20.59L49.705 30H40.295Z" fill="#674289"/>
</svg>
