<svg width="60" height="60" viewBox="0 0 60 60" fill="none" xmlns="http://www.w3.org/2000/svg">
<g clip-path="url(#clip0_9216_538)">
<path d="M59.2778 21.1425L32.7264 8.92057C31.8652 8.52389 30.9478 8.32373 30 8.32373C29.0522 8.32373 28.1351 8.52389 27.2736 8.92057L0.722227 21.1425C0.283359 21.3454 0 21.7875 0 22.2707C0 22.7538 0.283359 23.196 0.722227 23.3988L27.2736 35.6208C28.1348 36.0175 29.0522 36.2186 30 36.2186C30.9478 36.2186 31.8652 36.0175 32.7266 35.6208L53.6811 25.9756V35.6882C52.8496 35.7819 52.2011 36.4897 52.2011 37.345C52.2011 38.0902 52.6942 38.7353 53.3971 38.9408L51.98 48.2913H58.5046L57.0878 38.9408C57.7904 38.7353 58.2836 38.0902 58.2836 37.345C58.2836 36.4897 57.635 35.7819 56.8035 35.6882V24.538L59.278 23.3988C59.7168 23.196 60.0002 22.7538 60.0002 22.2707C60.0002 21.7875 59.7166 21.3454 59.2778 21.1425Z" fill="#674289"/>
<path d="M29.9998 40.6441C28.682 40.6441 27.405 40.3639 26.2046 39.8116L13.2178 33.833V45.7437C13.2178 48.3586 21.1193 51.6759 29.9998 51.6759C38.8805 51.6759 46.7822 48.3585 46.7822 45.7437V33.833L33.7946 39.8116C32.595 40.3639 31.3182 40.6441 29.9998 40.6441Z" fill="#674289"/>
</g>
<defs>
<clipPath id="clip0_9216_538">
<rect width="60" height="60" fill="white"/>
</clipPath>
</defs>
</svg>
