<svg width="38" height="38" viewBox="0 0 38 38" fill="none" xmlns="http://www.w3.org/2000/svg">
<path d="M24.2398 6.87475C25.4036 5.521 26.1113 3.74688 26.1113 1.80769C26.1113 1.59038 26.103 1.37544 26.0852 1.16406L26.0876 1.19137C23.9869 1.40512 22.1522 2.40144 20.8543 3.87987L20.846 3.88938C19.662 5.20394 18.9377 6.95194 18.9377 8.86975C18.9377 9.05619 18.9448 9.24263 18.9579 9.4255L18.9567 9.40056C18.9769 9.40056 19.0006 9.40056 19.0255 9.40056C21.1322 9.40056 23.0108 8.41969 24.228 6.889L24.2387 6.87594L24.2398 6.87475ZM19.2274 11.4253C17.8202 11.4253 15.6435 9.82569 13.3505 9.8815C10.1905 9.96819 7.46166 11.7316 6.01173 14.3109L5.98916 14.3548C2.84704 19.8078 5.17929 27.8626 8.24304 32.2956C9.74641 34.4533 11.5194 36.8805 13.8706 36.8057C16.1257 36.7095 16.9724 35.3415 19.7095 35.3415C22.4265 35.3415 23.1972 36.8057 25.5865 36.7487C28.0161 36.7107 29.5575 34.553 31.0418 32.3739C32.0488 30.9169 32.8872 29.2377 33.4691 27.4434L33.5071 27.3069C30.6808 26.0802 28.7381 23.3181 28.7286 20.1011C28.7559 17.244 30.2771 14.7479 32.5476 13.3549L32.582 13.3347C31.1095 11.2673 28.7571 9.91 26.0828 9.80906H26.0674C23.0998 9.5775 20.6144 11.4264 19.2262 11.4264L19.2274 11.4253Z" fill="black"/>
</svg>
