<svg width="32" height="32" viewBox="0 0 32 32" fill="none" xmlns="http://www.w3.org/2000/svg">
<g clip-path="url(#clip0_8813_3156)">
<path fill-rule="evenodd" clip-rule="evenodd" d="M6.88565 16.0008C6.88565 14.9846 7.05443 14.0104 7.35565 13.0966L2.08311 9.07031C1.05552 11.1567 0.476562 13.5076 0.476562 16.0008C0.476562 18.4918 1.0548 20.8413 2.08097 22.9263L7.35067 18.8922C7.05229 17.9827 6.88565 17.012 6.88565 16.0008Z" fill="#FBBC05"/>
<path fill-rule="evenodd" clip-rule="evenodd" d="M16.1422 6.75547C18.3497 6.75547 20.3437 7.53769 21.9103 8.81769L26.4679 4.26658C23.6906 1.8488 20.13 0.355469 16.1422 0.355469C9.95097 0.355469 4.63 3.89609 2.08203 9.06942L7.35458 13.0957C8.56946 9.40791 12.0325 6.75547 16.1422 6.75547Z" fill="#EB4335"/>
<path fill-rule="evenodd" clip-rule="evenodd" d="M16.1422 25.2446C12.0325 25.2446 8.56945 22.5921 7.35458 18.9043L2.08203 22.9299C4.63 28.1039 9.95097 31.6446 16.1422 31.6446C19.9634 31.6446 23.6116 30.2878 26.3497 27.7455L21.3449 23.8764C19.9328 24.766 18.1546 25.2446 16.1422 25.2446Z" fill="#34A853"/>
<path fill-rule="evenodd" clip-rule="evenodd" d="M31.0991 16.0007C31.0991 15.0762 30.9567 14.0807 30.743 13.1562H16.1445V19.2007H24.5476C24.1274 21.2615 22.9837 22.8458 21.3473 23.877L26.3521 27.7461C29.2283 25.0766 31.0991 21.1001 31.0991 16.0007Z" fill="#4285F4"/>
</g>
<defs>
<clipPath id="clip0_8813_3156">
<rect width="32" height="32" fill="white"/>
</clipPath>
</defs>
</svg>
