<svg width="120" height="120" viewBox="0 0 120 120" fill="none" xmlns="http://www.w3.org/2000/svg">
<path d="M38 31L62 21" stroke="#008180" stroke-width="5"/>
<path d="M67 21L93 52" stroke="#008180" stroke-width="5"/>
<path d="M98 65L70 89" stroke="#008180" stroke-width="5"/>
<path d="M31 38L58 86" stroke="#008180" stroke-width="5"/>
<path d="M34 80L59.7762 95.4268" stroke="#008180" stroke-width="5"/>
<path d="M33 69L64 25" stroke="#008180" stroke-width="5"/>
<path d="M32 35L57 51" stroke="#008180" stroke-width="5"/>
<path d="M73.5376 55.875L89.6438 57.0938" stroke="#008180" stroke-width="5"/>
<path d="M64.7061 63.7124L64.7248 83.8874" stroke="#008180" stroke-width="5"/>
<path d="M64.7246 15.1616C67.7137 15.1616 70.1375 17.5847 70.1377 20.5737C70.1377 23.563 67.7139 25.9868 64.7246 25.9868C61.7355 25.9866 59.3125 23.5628 59.3125 20.5737C59.3127 17.5848 61.7357 15.1618 64.7246 15.1616Z" stroke="#674289" stroke-width="11"/>
<path d="M100.556 52.9805C103.545 52.9805 105.969 55.4035 105.969 58.3926C105.969 61.3818 103.545 63.8057 100.556 63.8057C97.5671 63.8055 95.144 61.3817 95.144 58.3926C95.1443 55.4036 97.5672 52.9807 100.556 52.9805Z" stroke="#FFC400" stroke-width="11"/>
<path d="M64.7246 88.5493C67.7137 88.5493 70.1375 90.9724 70.1377 93.9614C70.1377 96.9507 67.7139 99.3745 64.7246 99.3745C61.7355 99.3743 59.3125 96.9505 59.3125 93.9614C59.3127 90.9725 61.7357 88.5495 64.7246 88.5493Z" stroke="#FE5442" stroke-width="11"/>
<path d="M28.4243 72.5366C31.4134 72.5366 33.8372 74.9597 33.8374 77.9487C33.8374 80.938 31.4136 83.3618 28.4243 83.3618C25.4353 83.3616 23.0122 80.9378 23.0122 77.9487C23.0124 74.9598 25.4354 72.5368 28.4243 72.5366Z" stroke="#203A5F" stroke-width="11"/>
<path d="M28.4243 29.8618C31.4134 29.8618 33.8372 32.2849 33.8374 35.2739C33.8374 38.2632 31.4136 40.687 28.4243 40.687C25.4353 40.6868 23.0122 38.263 23.0122 35.2739C23.0124 32.285 25.4354 29.862 28.4243 29.8618Z" stroke="#FE5442" stroke-width="11"/>
<path d="M64.5 50C66.9853 50 69 52.0147 69 54.5C69 56.9853 66.9853 59 64.5 59C62.0147 59 60 56.9853 60 54.5C60 52.0147 62.0147 50 64.5 50Z" stroke="#203A5F" stroke-width="10"/>
</svg>
