<svg width="32" height="32" viewBox="0 0 32 32" fill="none" xmlns="http://www.w3.org/2000/svg">
<g clip-path="url(#clip0_9216_453)">
<path fill-rule="evenodd" clip-rule="evenodd" d="M12.7449 4.92943C14.3401 2.69605 17.6594 2.69605 19.2548 4.92943L19.5088 5.28499C19.7894 5.67806 20.2609 5.88853 20.7409 5.83519L21.8729 5.70941C24.4206 5.42634 26.5733 7.57902 26.2902 10.1267L26.1645 11.2587C26.1112 11.7388 26.3216 12.2102 26.7146 12.4909L27.0702 12.7449C29.3036 14.3401 29.3036 17.6594 27.0702 19.2548L26.7146 19.5088C26.3216 19.7894 26.1112 20.2609 26.1645 20.7409L26.2902 21.8729C26.5733 24.4206 24.4206 26.5733 21.8729 26.2902L20.7409 26.1645C20.2609 26.1112 19.7894 26.3216 19.5088 26.7146L19.2548 27.0702C17.6594 29.3036 14.3402 29.3036 12.7449 27.0702L12.4909 26.7146C12.2102 26.3216 11.7388 26.1112 11.2587 26.1645L10.1267 26.2902C7.57902 26.5733 5.42634 24.4206 5.70941 21.8729L5.83519 20.7409C5.88853 20.2609 5.67806 19.7894 5.28499 19.5088L4.92943 19.2548C2.69605 17.6594 2.69605 14.3402 4.92943 12.7449L5.28499 12.4909C5.67806 12.2102 5.88853 11.7388 5.83519 11.2587L5.70941 10.1267C5.42634 7.57902 7.57902 5.42634 10.1267 5.70941L11.2587 5.83519C11.7388 5.88853 12.2102 5.67806 12.4909 5.28499L12.7449 4.92943ZM20.9426 12.3904C21.4633 12.9111 21.4633 13.7553 20.9426 14.276L15.8508 19.3678C15.1968 20.022 14.1362 20.022 13.4822 19.3678L11.057 16.9426C10.5363 16.422 10.5363 15.5777 11.057 15.057C11.5777 14.5364 12.4219 14.5364 12.9426 15.057L14.6665 16.7809L19.057 12.3904C19.5777 11.8697 20.422 11.8697 20.9426 12.3904Z" fill="#377E80"/>
</g>
<defs>
<clipPath id="clip0_9216_453">
<rect width="32" height="32" fill="white"/>
</clipPath>
</defs>
</svg>
