<svg width="60" height="60" viewBox="0 0 60 60" fill="none" xmlns="http://www.w3.org/2000/svg">
<path d="M22.5 25L30.6452 31.109C31.6915 31.8935 33.1655 31.7393 34.0267 30.7553L50 12.5" stroke="white" stroke-width="6" stroke-linecap="round"/>
<path d="M52.5 30C52.5 34.7013 51.0275 39.2843 48.289 43.1058C45.5507 46.9273 41.684 49.7948 37.2325 51.306C32.7808 52.817 27.9675 52.8957 23.4686 51.5312C18.9698 50.1665 15.0115 47.4268 12.1496 43.6973C9.28763 39.9675 7.66588 35.435 7.51205 30.7363C7.35823 26.0375 8.68008 21.4086 11.2919 17.4997C13.9038 13.5908 17.6745 10.5981 22.0744 8.94213C26.4743 7.28611 31.2825 7.04991 35.8235 8.26668" stroke="white" stroke-width="6" stroke-linecap="round"/>
</svg>
