<svg width="60" height="60" viewBox="0 0 60 60" fill="none" xmlns="http://www.w3.org/2000/svg">
<path d="M41.2973 41.2535C41.7348 40.9122 42.1315 40.5155 42.9253 39.7217L52.8188 29.8282C53.0578 29.5892 52.9483 29.1772 52.6288 29.0662C51.461 28.6612 49.9418 27.9005 48.5208 26.4795C47.0998 25.0585 46.339 23.5392 45.934 22.3714C45.823 22.0519 45.411 21.9424 45.172 22.1816L35.2785 32.075C34.4848 32.8687 34.088 33.2655 33.7468 33.703C33.3443 34.2192 32.999 34.7775 32.7175 35.3685C32.4788 35.8692 32.3013 36.4017 31.9465 37.4665L31.4878 38.8422L30.7585 41.0297L30.0748 43.081C29.9003 43.605 30.0365 44.1825 30.427 44.5732C30.8178 44.9637 31.3953 45.1 31.9193 44.9255L33.9705 44.2417L36.158 43.5125L37.5338 43.0537C38.5983 42.699 39.131 42.5215 39.6318 42.2827C40.2228 42.0012 40.781 41.656 41.2973 41.2535Z" fill="white"/>
<path d="M55.9163 26.7305C58.028 24.6188 58.028 21.1953 55.9163 19.0837C53.8048 16.9721 50.3813 16.9721 48.2695 19.0837L47.9515 19.4018C47.6445 19.7087 47.5055 20.1374 47.5823 20.5646C47.6305 20.8334 47.7198 21.2263 47.8825 21.6952C48.2078 22.6329 48.822 23.8637 49.9793 25.0207C51.1363 26.178 52.3673 26.7923 53.3048 27.1175C53.7738 27.2803 54.1665 27.3695 54.4353 27.4178C54.8625 27.4945 55.2913 27.3555 55.5983 27.0485L55.9163 26.7305Z" fill="white"/>
<path fill-rule="evenodd" clip-rule="evenodd" d="M10.4289 7.92892C7.5 10.8579 7.5 15.5719 7.5 25V35C7.5 44.428 7.5 49.1422 10.4289 52.071C13.3579 55 18.0719 55 27.5 55H32.5C41.928 55 46.6423 55 49.571 52.071C52.453 49.189 52.4992 44.579 52.5 35.4502L45.4543 42.496C44.7798 43.1707 44.2275 43.7235 43.6037 44.2102C42.8727 44.7802 42.082 45.269 41.2453 45.6677C40.531 46.008 39.7897 46.255 38.8845 46.5562L33.1052 48.4827C31.2337 49.1065 29.1705 48.6195 27.7755 47.2245C26.3808 45.8295 25.8935 43.7662 26.5175 41.8947L27.2013 39.8437L28.389 36.2802L28.4437 36.1157C28.7452 35.2105 28.992 34.469 29.3322 33.7547C29.731 32.918 30.2197 32.1272 30.79 31.3965C31.2765 30.7725 31.8293 30.2202 32.5043 29.5457L42.5203 19.5297L45.3 16.7501L45.618 16.432C47.4065 14.6435 49.7507 13.7495 52.095 13.75C51.7167 11.1736 50.9852 9.34317 49.571 7.92892C46.6423 5 41.928 5 32.5 5H27.5C18.0719 5 13.3579 5 10.4289 7.92892ZM18.125 22.5C18.125 21.4645 18.9645 20.625 20 20.625H36.25C37.2855 20.625 38.125 21.4645 38.125 22.5C38.125 23.5355 37.2855 24.375 36.25 24.375H20C18.9645 24.375 18.125 23.5355 18.125 22.5ZM18.125 32.5C18.125 31.4645 18.9645 30.625 20 30.625H26.25C27.2855 30.625 28.125 31.4645 28.125 32.5C28.125 33.5355 27.2855 34.375 26.25 34.375H20C18.9645 34.375 18.125 33.5355 18.125 32.5ZM18.125 42.5C18.125 41.4645 18.9645 40.625 20 40.625H23.75C24.7855 40.625 25.625 41.4645 25.625 42.5C25.625 43.5355 24.7855 44.375 23.75 44.375H20C18.9645 44.375 18.125 43.5355 18.125 42.5Z" fill="white"/>
</svg>
