<svg width="90" height="90" viewBox="0 0 90 90" fill="none" xmlns="http://www.w3.org/2000/svg">
<g clip-path="url(#clip0_9226_273)">
<path d="M47.8125 43.5938H88.5938C89.3714 43.5938 90 42.9652 90 42.1875C90 18.8887 71.1112 0 47.8125 0C47.0348 0 46.4062 0.628594 46.4062 1.40625V42.1875C46.4062 42.9652 47.0348 43.5938 47.8125 43.5938Z" fill="#FFC400"/>
<path d="M88.5938 46.4062H50.625C50.5631 46.4062 50.5097 46.433 50.4492 46.44C50.3311 46.4555 50.213 46.4667 50.1005 46.5103C49.9908 46.5539 49.8994 46.6284 49.8066 46.6973C49.7559 46.7353 49.6955 46.755 49.6491 46.7986C49.6462 46.8014 49.6448 46.807 49.642 46.8098C49.5211 46.928 49.4283 47.07 49.3566 47.2247C49.3509 47.2373 49.3369 47.2472 49.3313 47.2598C49.3088 47.3133 49.3102 47.378 49.2947 47.4356C49.2623 47.5537 49.223 47.6733 49.2216 47.7956L49.2188 47.8125C49.2188 47.887 49.2497 47.9531 49.2623 48.0263C49.2792 48.1303 49.2848 48.2344 49.3242 48.3342C49.3734 48.458 49.4536 48.5592 49.5337 48.6619C49.5633 48.7013 49.5773 48.7505 49.6139 48.787L49.628 48.8011C49.628 48.8011 49.6308 48.8053 49.6336 48.8067L77.6433 77.6433C85.2792 70.0088 90 59.4619 90 47.8125C90 47.0348 89.3714 46.4062 88.5938 46.4062Z" fill="#FE5442"/>
<path d="M44.4586 48.2217C43.6106 47.3737 43.5938 45.8508 43.5938 45.8508V7.03125C43.5938 6.25359 42.9652 5.625 42.1875 5.625C18.8887 5.625 0 24.5137 0 47.8125C0 71.1113 18.8887 90 42.1875 90C53.8369 90 64.3838 85.2792 72.0183 77.6433C72.0183 77.6433 45.8381 49.5998 44.4586 48.2217Z" fill="#008180"/>
</g>
<defs>
<clipPath id="clip0_9226_273">
<rect width="90" height="90" fill="white"/>
</clipPath>
</defs>
</svg>
