<svg width="60" height="60" viewBox="0 0 60 60" fill="none" xmlns="http://www.w3.org/2000/svg">
<path d="M29.9999 36.9588C34.8717 36.9588 38.7179 33.3505 39.2307 28.7113C39.4872 25.6185 39.7434 23.0413 39.7434 20.9794C39.7434 18.9175 39.7434 16.3402 39.2307 13.2474C38.7179 8.60825 34.8717 5 29.9999 5C27.6922 5 25.3844 5.7732 23.8461 7.3196C22.3076 8.86598 21.0256 10.6701 20.7692 12.9897C20.5128 16.0825 20.2563 18.6598 20.2563 20.7217C20.2563 22.7835 20.2563 25.3608 20.7692 28.4535C21.282 33.3505 25.1282 36.9588 29.9999 36.9588Z" fill="white"/>
<path d="M47.9487 19.9487C46.923 19.9487 45.8975 20.7219 45.8975 22.0106C45.8975 24.0725 45.641 26.6497 45.3845 29.7424C44.6155 37.4744 37.9487 43.4024 29.7435 43.4024C21.5384 43.4024 15.1282 37.4744 14.359 29.7424C14.1026 26.6497 13.8461 24.0725 13.8461 22.0106C13.8461 20.9797 13.0769 19.9487 11.7949 19.9487C10.5128 19.9487 10 20.9797 10 22.0106C10 24.3302 10.2564 26.9074 10.5128 30.0002C11.2821 39.0209 18.7179 46.2374 27.9487 47.0107V52.9384C27.9487 53.9694 28.718 55.0002 30 55.0002C31.282 55.0002 32.0512 54.2272 32.0512 52.9384V47.0107C41.282 46.2374 48.718 39.0209 49.4872 30.0002C49.7435 26.9074 50 24.0725 50 22.0106C50 20.9797 48.9742 19.9487 47.9487 19.9487Z" fill="white"/>
</svg>
